<?xml version="1.0" encoding="utf-8"?>
<!-- Generator: Adobe Illustrator 22.0.0, SVG Export Plug-In . SVG Version: 6.00 Build 0)  -->
<svg version="1.1" xmlns="http://www.w3.org/2000/svg" xmlns:xlink="http://www.w3.org/1999/xlink" x="0px" y="0px"
	 viewBox="0 0 1144.2 1144.2" style="enable-background:new 0 0 1144.2 1144.2;" xml:space="preserve">
<style type="text/css">
	.st0{display:none;}
	.st1{fill: #1b4c71;}
</style>
<g id="Bg_Circle" class="st0">
</g>
<g id="Koan" class="st0">
</g>
<g id="Layer_1">
	<g>
		<path class="st1" d="M572.1,0C256.1,0,0,256.1,0,572.1s256.1,572.1,572.1,572.1s572.1-256.1,572.1-572.1S888.1,0,572.1,0z
			 M1020,874c-14.7,21.8-31.1,42.6-48.9,62.1c-3.4-15.3-15.3-69.5-20.2-89.5c-104.6-62.6-289.5-27.3-308.6-1l-71.9,266.5
			c-72.3-0.2-142.4-14.5-208.4-42.4c-32-13.5-62.9-30.3-91.7-49.8c-28.6-19.3-55.5-41.5-80-66c-24.4-24.4-46.6-51.3-66-80
			c-19.5-28.9-36.3-59.7-49.8-91.7C46.3,715.7,32,645,32,572.1s14.3-143.7,42.4-210.2c13.5-32,30.3-62.9,49.8-91.7
			c19.3-28.6,41.5-55.5,66-80c24.4-24.4,51.3-46.6,80-66c28.9-19.5,59.7-36.3,91.7-49.8C428.4,46.3,499.2,32,572.1,32
			s143.7,14.3,210.2,42.4c32,13.5,62.9,30.3,91.7,49.8c28.6,19.3,55.5,41.5,80,66c24.4,24.4,46.6,51.3,66,80
			c19.5,28.9,36.3,59.7,49.8,91.7c28.2,66.6,42.4,137.3,42.4,210.2s-14.3,143.7-42.4,210.2C1056.2,814.3,1039.5,845.2,1020,874z"/>
		<path class="st1" d="M897,602.2c0,0,0.1,0.1,0.1,0.1C896.8,601.5,896.8,601.5,897,602.2z"/>
		<path class="st1" d="M732.4,510.2c0,0-33.3,130.7-36,140.6c59.4,36.8,141.2,94.8,226.1,60.5c0,0-23.8-101-25.5-109.1
			C878.7,577.8,767.9,510.1,732.4,510.2z"/>
		<path class="st1" d="M743.5,487.1c3.1,3.1,78.1,29.2,146.9,83.5c-2.4-11.1-16.6-73.9-19.7-85C830.2,443.4,775.9,465.7,743.5,487.1
			z"/>
		<path class="st1" d="M855,419c0.1,0.1,0.2,0.3,0.3,0.4C854.9,418.1,854.8,418.1,855,419z"/>
		<path class="st1" d="M753.5,421.4l-13,44.6c0,0,66.8-54.7,122.9-9.6c-1.1-4.8-7.6-32.7-8.5-37.4
			C836.7,392.9,781.9,386.5,753.5,421.4z"/>
		<path class="st1" d="M496.5,462.7c-36.7,0-66.5,29.8-66.5,66.5s29.8,66.5,66.5,66.5c36.7,0,66.5-29.8,66.5-66.5
			S533.2,462.7,496.5,462.7z M496.5,579.7c-27.8,0-50.5-22.6-50.5-50.5c0-27.8,22.6-50.5,50.5-50.5c27.8,0,50.5,22.6,50.5,50.5
			C547,557,524.4,579.7,496.5,579.7z"/>
		<path class="st1" d="M723.4,697L591,594.2c13.8-19.1,21.9-42.6,21.9-67.9c0-37.8-18-71.3-45.9-92.6l88.1-63.4
			c10.9,9.1,25,14.6,40.3,14.6c34.7,0,62.9-28.2,62.9-62.9c0-34.7-28.2-62.9-62.9-62.9c-10.1,0-19.6,2.4-28,6.6l-27.8-57
			c10.4-6.4,17.4-17.8,17.4-30.9c0-20-16.2-36.2-36.2-36.2s-36.2,16.2-36.2,36.2c0,20,16.2,36.2,36.2,36.2c3.2,0,6.2-0.4,9.2-1.2
			l28.4,58.4c-15.7,11.4-25.8,29.9-25.8,50.8c0,13.6,4.3,26.2,11.7,36.5l-91.5,65.8c-16.7-9.2-35.8-14.5-56.2-14.5
			c-64.3,0-116.4,52.1-116.4,116.4c0,64.3,52.1,116.4,116.4,116.4c32,0,61-12.9,82.1-33.9l106,82.3
			c-10.4,37.7-34.5,125.7-33.8,123.4c28.1-12.5,70.7-24.7,134.4-25.4c47.5-0.5,104.2,2.1,157,23.5c0,0-14.9-67.6-16.3-73.9
			C899.3,752.4,804.7,743.5,723.4,697z M620.8,206c-15.6,0-28.2-12.7-28.2-28.2c0-15.6,12.7-28.2,28.2-28.2
			c15.6,0,28.2,12.7,28.2,28.2C649.1,193.3,636.4,206,620.8,206z M695.5,272.1c27.5,0,49.9,22.4,49.9,49.9
			c0,27.5-22.4,49.9-49.9,49.9c-27.5,0-49.9-22.4-49.9-49.9C645.6,294.5,667.9,272.1,695.5,272.1z M496.5,626.7
			c-55.4,0-100.4-45-100.4-100.4s45-100.4,100.4-100.4c55.4,0,100.4,45,100.4,100.4S551.9,626.7,496.5,626.7z"/>
		<ellipse class="st1" cx="695.3" cy="321.6" rx="28.6" ry="27.2"/>
		<path class="st1" d="M620.8,166.5c-7,0-12.7,5.7-12.7,12.7s5.7,12.7,12.7,12.7c7,0,12.7-5.7,12.7-12.7S627.8,166.5,620.8,166.5z
			 M620.8,187.9c-4.8,0-8.7-3.9-8.7-8.7s3.9-8.7,8.7-8.7s8.7,3.9,8.7,8.7S625.6,187.9,620.8,187.9z"/>
	</g>
</g>
</svg>
